<svg width="265" height="265" viewBox="0 0 265 265" fill="none" xmlns="http://www.w3.org/2000/svg">
<g clip-path="url(#clip0_3_277)">
<path d="M96.5153 73.434C97.4082 71.7751 99.9003 71.1618 101.65 70.9936C103.385 70.828 105.173 70.784 107.012 70.8616C107.214 70.8694 107.537 70.7245 107.726 70.5821C109.972 68.8896 111.942 67.2334 114.853 67.0238C117.122 66.8616 119.173 67.0591 121.007 67.6164C124.723 68.7447 125.715 72.5774 124.553 75.9598C124.489 76.1444 124.526 76.3048 124.664 76.4411C125.559 77.3288 127.272 78.6848 127.329 80.0409C127.363 80.8483 126.864 81.2339 126.351 81.7903C125.692 82.5011 125.027 83.1127 124.356 83.6251C123.882 83.9848 123.266 84.0547 122.687 84.0366C120.815 83.9762 118.801 83.9581 116.647 83.9822C111.295 84.0409 106.347 84.1642 101.802 84.3523C96.8103 84.5593 91.7096 84.404 86.8159 84.3756C82.3699 84.3471 81.0941 79.2205 83.1955 76.0555C84.1306 74.6494 85.4374 73.5504 87.1161 72.7585C90.3406 71.2369 93.4263 71.4732 96.373 73.4676C96.3843 73.4755 96.3972 73.4809 96.4107 73.4834C96.4243 73.486 96.4382 73.4857 96.4517 73.4825C96.4651 73.4793 96.4777 73.4734 96.4887 73.465C96.4996 73.4567 96.5087 73.4461 96.5153 73.434ZM98.1328 74.7797C98.4045 75.1756 98.8625 75.688 98.5106 76.1797C98.0292 76.85 97.4107 76.6456 96.9165 76.1823C95.2343 74.6115 92.7758 73.2451 90.4416 73.5737C88.0555 73.9127 84.9992 75.688 84.2332 78.0663C83.4956 80.3669 84.5774 82.8306 87.2455 82.8228C90.1163 82.8142 92.9561 82.8297 95.7648 82.8694C98.7176 82.9108 101.774 82.7374 104.745 82.6184C110.845 82.3717 116.921 82.2915 122.971 82.3777C123.127 82.3812 123.263 82.332 123.38 82.2302C124.122 81.5936 124.804 80.9026 125.425 80.1573C125.468 80.106 125.492 80.0412 125.493 79.9738C125.494 79.9064 125.472 79.8405 125.43 79.7872C124.781 78.9574 124.04 78.1905 123.207 77.4866C122.865 77.1968 122.503 76.7154 122.638 76.2367C122.777 75.745 122.912 75.2507 123.041 74.7538C123.727 72.153 122.718 69.7851 119.969 69.1407C117.454 68.5506 114.043 68.2892 111.836 69.8472C110.731 70.627 109.626 71.4258 108.518 72.2435C108.102 72.5506 107.768 72.6913 107.516 72.6654C105.505 72.4583 103.569 72.4868 101.709 72.7508C100.418 72.9319 99.0825 73.2451 98.1793 74.1974C98.1062 74.2741 98.0616 74.3738 98.0531 74.4797C98.0446 74.5857 98.0728 74.6916 98.1328 74.7797Z" fill="#F8F8CA"/>
<path d="M208.985 83.5552C210.618 80.988 216.115 81.1924 218.775 81.2649C219.032 81.2718 219.262 81.195 219.463 81.0346C220.433 80.2565 221.403 79.5578 222.372 78.9384C224.445 77.6108 226.823 77.484 229.279 77.6833C231.3 77.8463 233.441 78.3509 234.727 80.0046C236.132 81.811 236.041 84.3859 235.459 86.4614C235.444 86.5145 235.444 86.5705 235.459 86.6234C235.473 86.6763 235.502 86.7241 235.542 86.7616C236.127 87.3154 236.694 87.8675 237.245 88.4178C238.122 89.2926 238.904 90.47 237.876 91.6191C237.252 92.3178 236.587 92.9846 235.884 93.6195C235.382 94.0724 234.791 94.3415 234.108 94.3286C227.145 94.2078 220.524 94.2932 214.246 94.5848C209.381 94.8125 204.368 94.6831 199.697 94.6469C196.216 94.621 194.803 91.5414 195.43 88.4334C195.963 85.7963 198.623 83.5345 201.097 82.6779C203.763 81.7566 206.307 82.068 208.731 83.6121C208.752 83.6251 208.775 83.6338 208.798 83.638C208.822 83.6421 208.846 83.6415 208.87 83.6362C208.894 83.6309 208.916 83.621 208.936 83.6071C208.955 83.5932 208.972 83.5756 208.985 83.5552ZM234.007 87.7191C233.36 87.1213 233.575 86.4562 233.811 85.7316C234.636 83.1903 234.007 80.4627 231.083 79.7484C228.832 79.1998 225.656 78.9539 223.64 80.2763C222.555 80.9871 221.301 81.8713 219.877 82.9289C219.703 83.0583 219.501 83.1127 219.272 83.092C217.014 82.8711 214.917 82.9384 212.983 83.2938C212.1 83.456 211.347 83.7898 210.724 84.2953C210.486 84.4868 210.445 84.7146 210.6 84.9785L211.079 85.7834C211.134 85.8763 211.159 85.9842 211.15 86.0922C211.141 86.2002 211.099 86.3029 211.029 86.3863C210.536 86.9695 210.009 86.9928 209.448 86.4562C207.347 84.4454 204.42 83.1385 201.542 84.404C199.066 85.4935 196.695 87.6078 197.096 90.514C197.246 91.6061 198.124 92.9699 199.363 92.9932C204.389 93.0942 209.306 93.1951 214.293 92.9648C220.647 92.668 227.14 92.5757 233.772 92.6879C234.11 92.693 234.406 92.5852 234.66 92.3644C235.362 91.7519 235.953 91.1213 236.435 90.4726C236.458 90.4417 236.472 90.4047 236.474 90.3662C236.477 90.3277 236.469 90.2892 236.45 90.2552C236.336 90.0396 236.191 89.842 236.013 89.6626C235.35 88.9915 234.682 88.3437 234.007 87.7191Z" fill="#F8F8CA"/>
<path d="M228.513 197.637C228.7 199.353 226.252 199.332 225.097 199.216C224.256 199.128 223.863 198.649 223.865 197.78C223.869 196.874 223.865 195.966 223.855 195.057C223.854 195.023 223.846 194.99 223.832 194.96C223.817 194.929 223.797 194.902 223.771 194.88C223.746 194.858 223.716 194.842 223.683 194.832C223.651 194.823 223.617 194.82 223.583 194.824L212.536 196.33C212.43 196.344 212.392 196.402 212.422 196.504C213.002 198.53 210.046 198.662 208.711 198.546C208.138 198.496 207.796 198.119 207.686 197.415C207.653 197.199 207.529 197.105 207.313 197.133L188.461 199.488L184.672 199.754C184.589 199.761 184.549 199.806 184.553 199.889C184.572 200.198 184.618 200.422 184.69 200.562C184.747 201.045 184.791 201.411 184.822 201.661C184.888 202.182 184.666 202.531 184.157 202.707C183.367 202.978 182.442 203.092 181.383 203.049C180.555 203.015 180.019 202.578 179.977 201.703C179.938 200.932 179.911 200.191 179.897 199.48C179.897 199.449 179.884 199.419 179.863 199.396C179.841 199.374 179.812 199.36 179.781 199.358L172.105 198.794L169.46 198.603C169.352 198.594 169.304 198.644 169.318 198.753C169.481 200.049 169.843 201.563 168.094 201.874C167.18 202.037 165.641 202.293 164.797 201.483L164.561 199.014C164.554 198.933 164.526 198.854 164.481 198.787C164.435 198.719 164.373 198.665 164.3 198.628C162.654 197.795 161.67 196.431 161.347 194.537C161.332 194.447 161.278 194.407 161.187 194.415L154.28 195.078C154.168 195.088 154.077 195.138 154.008 195.228C152.481 197.223 149.598 197.666 147.393 196.408C147.2 196.298 147 196.183 146.793 196.064C146.71 196.015 146.621 195.997 146.526 196.007L139.922 196.721C139.843 196.73 139.8 196.774 139.793 196.853C139.767 197.15 139.813 197.397 139.932 197.596C139.786 199.466 138.894 200.811 137.257 201.63C134.366 202.854 131.498 201.012 131.048 197.961L130.955 197.376C130.939 197.283 130.884 197.234 130.789 197.228C128.434 197.116 126.168 196.867 123.991 196.48C122.361 196.191 120.611 196.134 118.916 195.914C118.828 195.902 118.776 195.94 118.761 196.028C118.747 196.105 118.759 196.155 118.797 196.178C118.645 197.886 117.922 199.06 116.626 199.7C113.306 201.341 109.432 198.802 110.399 194.985C110.434 194.85 110.435 194.718 110.402 194.589C110.359 194.427 110.286 194.296 110.185 194.198C110.076 193.806 109.913 193.493 109.696 193.259C109.637 193.195 109.565 193.167 109.481 193.176L103.679 193.706C96.2773 194.477 88.8475 195.07 81.3892 195.484C74.671 195.857 68.0106 195.482 61.4081 194.358C58.2853 193.827 55.3093 193.311 52.4798 192.811C52.3677 192.79 52.2832 192.831 52.2262 192.932C51.7725 193.757 51.4136 194.32 51.1497 194.62C50.1921 195.712 48.9638 196.312 47.4645 196.421C45.2475 196.578 43.2333 196.719 41.4218 196.843C39.8173 196.951 38.0877 196.863 36.2331 196.576C34.6613 196.333 33.1802 196.053 31.7896 195.738C30.2602 195.337 28.5703 194.915 27.3229 194.066C25.0353 192.508 26.8054 186.872 27.7241 184.804C28.371 183.353 29.043 181.916 29.74 180.492C29.8021 180.366 29.8901 180.122 29.8875 179.977C29.8875 179.848 29.9514 179.796 30.0791 179.822C35.4136 180.907 40.5169 181.659 45.389 182.076C46.6312 182.185 47.7155 182.115 48.2719 180.912C49.4986 178.263 50.62 175.747 51.6362 173.363C51.6776 173.264 51.75 173.225 51.8536 173.244C52.6437 173.387 53.4391 173.473 54.2396 173.503C54.3466 173.506 54.4 173.454 54.4 173.347C54.4 173.249 54.3724 173.16 54.3172 173.081C54.2672 173.01 54.1982 172.965 54.1102 172.946C53.2131 172.753 52.3556 172.621 51.5378 172.55C51.4957 172.547 51.4536 172.557 51.4168 172.577C51.3799 172.598 51.35 172.629 51.3308 172.667C51.0979 173.125 50.8106 173.549 50.6036 174.02C49.7013 176.103 48.7671 178.202 47.8009 180.319C47.5421 180.891 47.2368 181.383 46.5199 181.39C45.7108 181.397 44.9689 181.366 44.2943 181.297C39.7845 180.837 35.4412 180.184 31.2643 179.338C31.0849 179.3 30.9158 179.287 30.7571 179.299C30.4396 179.32 30.3465 179.186 30.4776 178.896C31.4023 176.86 32.4314 174.835 33.5649 172.822C35.2212 169.877 37.3691 166.443 41.339 167.139C41.4701 167.161 41.5563 167.11 41.5978 166.986C43.0504 162.67 45.678 159.118 49.4805 156.332C50.8952 155.297 52.3556 154.768 53.8618 154.746C54.2361 154.74 54.5812 154.664 54.8969 154.518C59.0151 152.613 63.286 151.161 67.7096 150.162C67.7444 150.155 67.7764 150.137 67.802 150.112C67.8276 150.087 67.8458 150.055 67.8545 150.02C68.743 146.53 69.8851 143.149 71.2809 139.878C71.6639 138.98 72.699 138.362 73.6022 137.916C77.7765 135.862 83.3275 135.554 87.7191 136.814C89.3892 137.292 91.0032 137.719 92.5611 138.095C93.7153 138.375 94.3079 139.534 94.7504 140.654C95.7476 143.168 96.6948 145.599 97.5919 147.947C97.6247 148.032 97.686 148.078 97.7757 148.087C101.537 148.434 105.155 149.217 108.629 150.437C108.64 150.44 108.651 150.442 108.663 150.44C108.674 150.438 108.684 150.434 108.694 150.427C108.703 150.421 108.71 150.412 108.715 150.402C108.72 150.392 108.723 150.381 108.722 150.369C108.705 145.879 108.694 141.108 108.689 136.058C108.684 131.612 111.36 128.323 115.958 127.969C120.27 127.634 124.555 127.305 128.815 126.983C129.584 126.926 130.379 126.851 131.198 126.758C131.244 126.753 131.289 126.737 131.328 126.713C131.367 126.688 131.401 126.655 131.426 126.615C131.946 125.787 132.453 125.79 133.289 125.487C133.393 125.449 133.445 125.375 133.445 125.264L133.419 106.179C133.419 106.118 133.402 106.058 133.371 106.006C133.34 105.954 133.296 105.912 133.243 105.884C132.803 105.651 132.526 105.244 132.523 104.742C132.518 104.137 132.519 103.542 132.526 102.959C132.562 99.846 135.391 99.4139 137.878 99.4501C140.9 99.4915 144.087 99.413 147.437 99.2146C149.187 99.1111 151.5 99.5717 151.508 101.815C151.512 102.687 151.508 103.572 151.498 104.471C151.487 105.371 151.007 105.824 150.056 105.829C149.946 105.829 149.891 105.884 149.891 105.995L149.888 124.584C149.888 124.713 149.954 124.773 150.085 124.762C150.216 124.752 150.343 124.768 150.465 124.811C150.506 124.825 150.544 124.847 150.576 124.876C150.609 124.904 150.635 124.938 150.654 124.977L150.84 125.357C150.88 125.44 150.946 125.477 151.04 125.469C151.788 125.403 152.532 125.342 153.27 125.285C156.8 125.003 160.511 125.528 163.971 126.023C165.524 126.245 167.388 126.692 169.564 127.363C172.038 128.126 173.638 129.637 174.364 131.897C174.646 132.775 174.776 134.275 174.755 136.397C174.719 140.139 174.712 144.079 174.734 148.216C174.734 148.235 174.743 148.244 174.76 148.242L176.719 148.131C176.757 148.127 176.775 148.107 176.774 148.069C176.73 140.183 176.665 132.168 176.577 124.025C176.574 123.635 176.558 123.265 176.53 122.914C176.522 122.823 176.479 122.752 176.401 122.702C175.839 122.353 175.368 122.128 175.361 121.367C175.347 120.03 175.348 118.813 175.363 117.715C175.372 117.143 175.667 116.756 176.248 116.556C177.318 116.189 178.34 115.912 179.315 115.725C183.916 114.848 189.361 114.657 193.872 116.09C194.6 116.32 194.98 116.805 195.013 117.547C195.054 118.453 195.087 119.385 195.111 120.345C195.137 121.403 195.262 122.071 194.18 122.394C193.976 122.456 193.875 122.594 193.877 122.806C193.91 127.179 193.938 131.368 193.962 135.373C193.966 135.838 193.952 136.339 193.921 136.874C193.897 137.26 193.987 137.288 194.19 136.959C195.312 135.142 196.565 133.517 197.95 132.083C198.434 131.584 199.366 130.652 200.065 130.538C201.025 130.381 204.164 133.592 204.93 134.402C207.737 137.368 210.166 140.522 212.217 143.866C212.502 144.328 212.788 144.794 213.077 145.264C213.132 145.353 213.212 145.398 213.317 145.398C215.444 145.407 217.687 145.601 220.046 145.98C222.582 146.389 225.328 147.251 226.766 149.596C228.438 152.313 229.36 155.077 230.058 158.208C230.624 160.753 230.909 163.126 230.912 165.327C230.915 166.808 231.288 168.2 231.321 169.688C231.454 175.473 231.143 181.28 230.387 187.11C230.144 188.985 229.794 190.602 229.339 191.959C229.187 192.408 228.923 192.82 228.547 193.196C228.48 193.262 228.447 193.341 228.449 193.435L228.513 197.637ZM147.898 105.749C147.088 105.687 146.873 105.304 146.643 104.626C146.61 104.533 146.544 104.487 146.446 104.489L137.319 104.693C137.219 104.697 137.159 104.748 137.14 104.846C136.978 105.724 136.425 106.135 135.481 106.08C135.316 106.072 135.233 106.15 135.233 106.316L135.248 124.617C135.248 124.714 135.294 124.749 135.386 124.723C139.597 123.554 143.79 123.546 147.965 124.7C148.06 124.726 148.108 124.69 148.108 124.591L148.105 105.972C148.105 105.834 148.036 105.759 147.898 105.749ZM190.381 121.54C190.367 121.394 190.358 121.249 190.355 121.106C190.353 121.019 190.309 120.978 190.223 120.981L180.306 121.287C180.135 121.292 180.055 121.38 180.065 121.551C180.122 122.498 179.245 122.702 178.502 122.754C178.455 122.757 178.412 122.778 178.38 122.812C178.348 122.847 178.331 122.891 178.332 122.938L178.546 147.833C178.546 147.847 178.549 147.861 178.555 147.874C178.56 147.887 178.569 147.898 178.579 147.908C178.59 147.917 178.602 147.924 178.616 147.929C178.629 147.933 178.643 147.935 178.658 147.934L188.6 147.039C188.637 147.035 188.671 147.021 188.7 146.998C188.729 146.976 188.751 146.946 188.763 146.912C189.69 144.488 190.819 142.185 192.151 140.002C192.213 139.901 192.243 139.79 192.241 139.671L192.138 122.736C192.138 122.551 192.045 122.461 191.858 122.464C191.289 122.48 190.44 122.211 190.381 121.54ZM124.087 168.231C123.737 169.564 122.26 169.414 121.253 168.894C121.15 168.84 121.099 168.872 121.1 168.989C121.223 174.764 121.228 180.736 121.116 186.905C121.056 190.163 122.257 192.731 124.019 195.373C124.137 195.549 124.301 195.635 124.511 195.632C125.151 195.62 125.778 195.695 126.393 195.857C126.519 195.89 126.579 195.841 126.574 195.712C126.519 193.986 126.255 190.935 128.773 190.823C128.827 190.821 128.878 190.799 128.915 190.761C128.952 190.723 128.973 190.672 128.973 190.619C128.974 172.255 128.971 154.232 128.962 136.55C128.96 133.916 129.746 131.724 132.257 130.497C132.904 130.18 134.18 129.952 136.087 129.814C145.928 129.096 155.889 128.35 165.972 127.575C166.051 127.568 166.056 127.544 165.987 127.503C165.867 127.43 165.737 127.38 165.599 127.353C163.946 127.013 162.278 126.741 160.594 126.538C159.714 126.431 158.759 126.432 157.729 126.543C155.797 126.751 153.898 126.905 152.033 127.003C150.339 127.093 148.618 127.207 146.871 127.345C140.918 127.813 134.867 128.248 128.717 128.652C127.117 128.755 125.727 129.317 124.545 130.337C121.628 132.852 120.603 136.224 120.624 140.059C120.645 144.229 120.738 148.954 120.904 154.233C120.909 154.378 120.984 154.457 121.129 154.469C123.427 154.668 124.322 156.296 124.32 158.376C124.315 161.157 124.315 163.709 124.322 166.031C124.326 166.891 124.247 167.624 124.087 168.231ZM130.852 190.924C133.124 191.419 134.017 193.347 134.019 195.471C134.019 195.592 134.079 195.646 134.2 195.634L161.611 192.666C161.711 192.656 161.746 192.603 161.715 192.508C161.404 191.57 161.173 190.634 161.021 189.7C159.756 181.931 159.699 173.715 159.994 165.744C160.066 163.763 160.253 161.655 160.555 159.419C161.179 154.79 163.089 149.707 168.353 148.884C169.847 148.649 171.35 148.504 172.863 148.449C172.888 148.449 172.911 148.438 172.928 148.421C172.944 148.404 172.954 148.38 172.954 148.356C172.952 144.215 172.953 140.093 172.956 135.989C172.956 134.494 172.932 133.593 172.884 133.284C172.581 131.377 171.217 129.609 169.297 129.169C168.73 129.04 167.906 129.018 166.826 129.102C156.355 129.922 145.897 130.702 135.45 131.444C132.164 131.677 130.704 133.318 130.707 136.617C130.715 155.395 130.72 173.442 130.72 190.759C130.72 190.848 130.764 190.904 130.852 190.924ZM118.771 194.568C116.675 192.467 116.367 188.323 116.388 185.552C116.44 178.692 116.452 171.812 116.424 164.911C116.396 157.846 116.101 150.608 116.098 144.461C116.098 142.369 116.17 140.322 116.313 138.323C116.569 134.764 117.811 131.662 120.513 129.41C120.71 129.246 120.681 129.175 120.427 129.198C119.104 129.313 117.813 129.426 116.553 129.537C114.103 129.749 111.95 131.064 110.961 133.331C110.397 134.622 110.474 135.906 110.474 137.288C110.462 154.606 110.464 171.01 110.48 186.499C110.485 189.434 110.407 191.155 111.877 193.196C112.415 193.942 113.153 194.242 114.043 194.322C115.701 194.469 117.247 194.615 118.681 194.762C118.893 194.785 118.923 194.72 118.771 194.568ZM205.82 145.481C204.078 141.058 202.094 136.736 200.049 132.541C200.042 132.527 200.031 132.515 200.017 132.507C200.004 132.498 199.988 132.494 199.972 132.494C199.956 132.493 199.941 132.497 199.927 132.505C199.913 132.513 199.902 132.525 199.894 132.539C198.969 134.29 198.286 136.028 197.844 137.753C197.14 140.502 196.576 143.416 196.116 146.283C196.097 146.406 196.149 146.462 196.273 146.451L205.735 145.618C205.826 145.611 205.855 145.565 205.82 145.481ZM87.9236 138.765C83.7286 137.365 78.3769 137.565 74.3294 139.661C74.3034 139.674 74.2819 139.695 74.2675 139.72C74.2532 139.745 74.2468 139.774 74.249 139.804C74.2512 139.833 74.262 139.86 74.28 139.883C74.298 139.906 74.3224 139.923 74.3501 139.932C77.0984 140.885 79.8916 141.198 82.7297 140.872C84.6603 140.649 86.2492 139.839 87.9417 138.998C88.1246 138.907 88.1185 138.829 87.9236 138.765ZM69.0993 150.279C69.0955 150.291 69.0945 150.305 69.0963 150.318C69.0981 150.331 69.1027 150.343 69.1098 150.354C69.1168 150.366 69.1263 150.375 69.1374 150.383C69.1485 150.39 69.1611 150.395 69.1743 150.398C69.4072 150.446 69.6384 150.483 69.8679 150.509C75.8028 151.185 81.6393 150.969 87.3775 149.86C90.2268 149.308 93.0657 148.553 95.9616 148.24C96.0047 148.234 96.0185 148.212 96.003 148.172C95.0731 145.954 94.1716 143.731 93.2986 141.506C93.0571 140.888 92.7647 140.375 92.4213 139.966C91.5466 138.921 87.9469 140.981 87.0308 141.433C82.6779 143.587 76.7542 142.89 72.3419 141.131C72.2574 141.098 72.1978 141.125 72.1633 141.211C70.9884 144.235 69.9671 147.258 69.0993 150.279ZM188.207 149.107C188.129 149.008 188.099 148.909 188.116 148.809C188.139 148.674 188.083 148.613 187.948 148.625L173.979 149.836C173.942 149.839 173.906 149.853 173.877 149.876C173.848 149.899 173.825 149.93 173.813 149.966C172.799 152.745 172.316 155.685 172.364 158.785C172.543 170.279 172.674 181.112 172.755 191.284C172.77 193.439 173.407 195.449 174.664 197.314C174.723 197.403 174.806 197.452 174.913 197.459L182.074 198.015C182.169 198.024 182.199 197.983 182.164 197.893C181.602 196.401 181.308 194.724 181.284 192.863C181.186 185.055 181.365 178.836 181.535 172.369C181.563 171.31 181.629 170.256 181.732 169.207C181.789 168.636 181.764 168.077 181.657 167.532C181.126 164.831 180.883 161.961 180.93 158.922C180.958 157.165 180.984 155.317 181.323 153.633C181.729 151.617 183.518 150.566 185.422 150.225C186.62 150.011 187.373 149.892 187.682 149.867C194.485 149.337 201.348 148.959 208.191 148.434C212.669 148.089 217.055 147.785 221.347 147.523C221.894 147.49 221.902 147.407 221.371 147.274C219.08 146.695 216.583 146.373 213.881 146.309C213.865 146.309 213.849 146.312 213.835 146.32C213.82 146.327 213.808 146.338 213.799 146.351C213.79 146.365 213.784 146.38 213.782 146.396C213.78 146.412 213.782 146.429 213.788 146.444L214.011 146.979C214.023 147.009 214.028 147.041 214.026 147.073C214.023 147.105 214.013 147.136 213.997 147.164C213.98 147.191 213.957 147.214 213.93 147.231C213.903 147.248 213.872 147.259 213.84 147.261L207.189 147.854C207.112 147.861 207.033 147.848 206.962 147.817C206.89 147.785 206.828 147.735 206.78 147.673L206.405 147.173C206.343 147.092 206.263 147.056 206.164 147.065C203.024 147.332 199.64 147.614 196.012 147.911C195.788 147.928 195.689 148.05 195.717 148.276C195.722 148.316 195.719 148.357 195.708 148.396C195.696 148.435 195.677 148.471 195.652 148.503C195.626 148.534 195.594 148.56 195.558 148.579C195.523 148.598 195.483 148.609 195.443 148.612L188.424 149.2C188.384 149.204 188.343 149.197 188.305 149.181C188.267 149.165 188.233 149.139 188.207 149.107ZM216.298 168.692L216.645 165.413C216.657 165.296 216.711 165.187 216.798 165.105C217.071 164.848 217.316 164.756 217.533 164.831C217.824 164.931 217.956 165.133 217.926 165.439L217.714 167.625C217.711 167.663 217.728 167.682 217.766 167.68L219.381 167.594C219.431 167.591 219.454 167.564 219.451 167.514L219.337 165.594C219.318 165.259 219.475 165.088 219.808 165.079L219.947 165.076C220.434 165.063 220.698 165.299 220.739 165.785L220.964 168.474C220.971 168.537 220.955 168.6 220.921 168.652C220.886 168.705 220.835 168.744 220.776 168.764C220.429 168.881 220.366 169.138 220.587 169.533C220.605 169.564 220.631 169.591 220.663 169.608C220.695 169.625 220.731 169.633 220.768 169.631C222.671 169.536 224.637 169.301 226.666 168.925C227.311 168.806 227.844 168.607 228.265 168.329C229.274 167.662 229.357 165.977 229.308 164.849C229.132 160.686 228.278 156.76 226.746 153.071C225.861 150.939 224.807 148.985 222.305 149.042C220.517 149.086 218.721 149.13 216.953 149.267C209.436 149.847 201.837 150.369 194.156 150.835C191.803 150.978 189.453 151.159 187.104 151.376C185.746 151.5 183.764 151.865 183.145 153.128C182.916 153.596 182.767 154.211 182.7 154.973C182.312 159.323 182.505 163.573 183.28 167.724C183.502 168.916 183.844 170.047 184.304 171.117C184.763 172.181 185.593 172.713 186.794 172.713C189.268 172.712 191.676 172.574 194.019 172.299C194.075 172.293 194.129 172.272 194.175 172.239C194.221 172.207 194.258 172.163 194.282 172.111C194.306 172.06 194.317 172.004 194.313 171.948C194.309 171.891 194.291 171.837 194.26 171.789C194.087 171.523 193.877 171.241 193.882 170.91C193.915 169.308 194.007 167.845 194.159 166.518C194.209 166.064 194.433 165.777 194.829 165.656C194.853 165.649 194.878 165.646 194.902 165.646C195.383 165.632 195.589 165.864 195.52 166.342C195.351 167.489 195.255 168.712 195.23 170.009C195.23 170.02 195.232 170.032 195.236 170.042C195.24 170.053 195.247 170.062 195.255 170.07C195.263 170.078 195.272 170.084 195.283 170.089C195.293 170.093 195.305 170.095 195.316 170.094L197.402 170.022C197.411 170.022 197.42 170.019 197.429 170.015C197.437 170.011 197.444 170.006 197.451 169.999C197.457 169.991 197.461 169.983 197.464 169.974C197.467 169.965 197.467 169.956 197.466 169.947C197.323 168.875 197.153 167.779 196.957 166.658C196.879 166.223 196.951 165.874 197.174 165.612C197.495 165.234 198.062 165.395 198.253 165.804C198.582 166.5 198.665 167.374 198.791 168.156C198.981 169.34 199.129 170.565 199.234 171.833C199.235 171.85 199.24 171.867 199.248 171.882C199.255 171.897 199.266 171.91 199.279 171.921C199.292 171.932 199.307 171.94 199.324 171.945C199.34 171.95 199.357 171.952 199.374 171.95C204.784 171.424 210.184 170.835 215.574 170.185C215.903 170.145 216.266 170.077 216.661 169.98C216.764 169.955 216.82 169.888 216.829 169.781L216.873 169.139C216.882 169.01 216.821 168.944 216.692 168.94L216.508 168.932C216.353 168.927 216.283 168.847 216.298 168.692ZM57.49 157.491C58.4958 156.31 59.7673 155.415 61.3045 154.808C63.1212 154.092 64.9949 153.419 66.9254 152.789C67.0239 152.757 67.1111 152.697 67.177 152.618C67.243 152.539 67.2849 152.443 67.2981 152.341L67.3654 151.829C67.3913 151.636 67.3102 151.562 67.1221 151.609C63.2644 152.556 59.5241 153.848 55.901 155.486C55.7889 155.536 55.7785 155.603 55.87 155.688C57.0138 156.718 56.9776 158.317 56.6049 159.763C56.5958 159.798 56.5939 159.835 56.5993 159.87C56.6047 159.906 56.6174 159.94 56.6366 159.971C56.6558 160.001 56.681 160.028 56.7107 160.048C56.7404 160.068 56.774 160.083 56.8094 160.09C63.4784 161.389 70.0309 162.041 77.1528 162.489C81.7006 162.773 85.8455 162.771 89.5876 162.483C95.4052 162.036 100.889 160.597 106.313 158.081C107.108 157.712 107.841 157.276 108.51 156.772C108.58 156.72 108.637 156.652 108.675 156.574C108.714 156.497 108.734 156.411 108.733 156.324L108.715 152.021C108.715 151.959 108.696 151.899 108.661 151.849C108.626 151.798 108.576 151.76 108.518 151.738C105.975 150.814 103.315 150.137 100.54 149.71C99.8218 149.599 99.1248 149.485 98.4485 149.368C98.2691 149.337 98.1992 149.409 98.2389 149.585L98.4175 150.375C98.4641 150.58 98.5926 150.695 98.8031 150.719C100.09 150.867 101.473 151.083 102.951 151.366C104.649 151.692 106.378 152.222 107.439 153.576C107.703 153.915 107.744 154.383 107.397 154.686C106.766 155.231 106.087 155.707 105.361 156.112C97.535 160.465 88.0323 161.836 79.2283 161.666C74.2095 161.567 69.3218 161.132 64.5653 160.361C63.0721 160.118 58.168 159.261 57.4512 157.789C57.3994 157.682 57.4123 157.583 57.49 157.491ZM169.181 157.204C169.209 154.73 169.898 151.925 171.45 150.082C171.462 150.069 171.469 150.053 171.471 150.036C171.473 150.019 171.47 150.002 171.461 149.987C171.453 149.972 171.441 149.96 171.425 149.952C171.41 149.945 171.392 149.942 171.375 149.945C170.656 150.042 169.903 150.136 169.116 150.227C164.665 150.75 162.871 155.118 162.318 159.039C162.014 161.204 161.817 163.314 161.728 165.369C161.493 170.81 161.523 176.287 161.818 181.799C162.029 185.709 162.588 189.301 163.495 192.575C163.951 194.218 164.441 195.416 164.968 196.17C165.128 196.399 165.39 196.533 165.754 196.571C167.478 196.744 169.308 196.951 171.246 197.192C171.375 197.208 171.39 197.174 171.29 197.091C169.628 195.712 169.126 193.52 169.101 191.393C169.056 187.54 168.929 183.785 168.72 180.128C168.546 177.089 168.576 173.07 168.811 168.071C169.028 163.442 169.151 159.82 169.181 157.204ZM99.9702 155.149C99.601 155.391 99.2068 155.6 98.7876 155.778C96.8466 156.598 95.0472 157.193 93.3892 157.564C87.2128 158.942 81.0959 159.525 75.0385 159.311C72.9906 159.236 70.9091 158.93 68.7939 158.392C66.1361 157.714 66.2526 156.117 66.8996 153.835C66.922 153.754 66.8935 153.728 66.8142 153.757C65.1872 154.359 63.5543 154.978 61.9153 155.612C60.8094 156.04 59.763 156.659 58.7762 157.468C58.7564 157.485 58.7409 157.506 58.7312 157.53C58.7214 157.554 58.7176 157.58 58.7202 157.605C58.7227 157.631 58.7316 157.655 58.7458 157.677C58.7601 157.698 58.7794 157.715 58.802 157.727C59.537 158.118 60.278 158.412 61.025 158.607C65.7143 159.831 70.577 160.294 75.5121 160.612C84.0573 161.164 92.5973 160.325 100.648 157.279C102.796 156.465 104.71 155.44 106.391 154.205C106.577 154.068 106.579 153.93 106.396 153.788C105.811 153.334 105.159 153 104.439 152.784C102.654 152.249 100.871 151.923 99.0903 151.806C98.9437 151.797 98.8971 151.861 98.9506 151.997L100.061 154.87C100.106 154.987 100.075 155.08 99.9702 155.149ZM54.1571 158.885C54.2465 158.87 54.3175 158.766 54.3545 158.596C54.3914 158.425 54.3913 158.201 54.3541 157.974C54.317 157.747 54.2458 157.536 54.1563 157.386C54.0668 157.235 53.9663 157.159 53.8769 157.174C53.7875 157.189 53.7165 157.293 53.6796 157.464C53.6427 157.634 53.6428 157.858 53.6799 158.085C53.7171 158.312 53.7882 158.523 53.8777 158.674C53.9672 158.824 54.0677 158.9 54.1571 158.885ZM46.7839 162.24C45.5003 163.832 44.4781 165.581 43.7172 167.486C43.7111 167.501 43.7085 167.518 43.7095 167.534C43.7105 167.551 43.7152 167.567 43.7231 167.581C43.7311 167.596 43.7421 167.608 43.7554 167.618C43.7687 167.627 43.784 167.633 43.8 167.636C44.4919 167.765 45.1941 167.94 45.9066 168.161C47.4749 168.643 49.2087 168.676 50.8132 168.816C50.9685 168.828 51.0668 168.759 51.1083 168.609C51.6 166.82 52.1822 165.161 52.8551 163.632C53.339 162.538 53.22 161.627 53.1786 160.506C53.1699 160.291 53.1009 160.087 52.9715 159.895C52.4747 159.168 52.1175 158.392 52.441 157.533C52.5083 157.353 52.4583 157.309 52.2909 157.401C50.2335 158.529 48.2357 160.441 46.7839 162.24ZM97.0433 173.052C97.0864 172.918 97.1779 172.85 97.3176 172.85H98.5132C98.5529 172.85 98.5912 172.864 98.6215 172.889C98.6518 172.914 98.6721 172.949 98.6789 172.988C98.8376 173.869 98.8169 174.705 98.6167 175.495C98.596 175.576 98.5477 175.633 98.4718 175.666C98.2044 175.778 97.931 175.786 97.6515 175.689C97.5618 175.658 97.5022 175.687 97.4729 175.775C97.4487 175.851 97.4375 175.927 97.4393 176.005C97.441 176.138 97.5074 176.197 97.6385 176.184C101.184 175.842 104.521 175.481 107.651 175.102C107.925 175.069 108.205 175.023 108.49 174.962C108.553 174.948 108.61 174.912 108.651 174.861C108.692 174.81 108.715 174.746 108.715 174.68L108.689 158.48C108.689 158.47 108.687 158.461 108.682 158.453C108.678 158.444 108.671 158.437 108.663 158.432C108.655 158.427 108.645 158.424 108.636 158.424C108.626 158.424 108.617 158.426 108.609 158.431C103.001 161.415 96.637 163.249 90.1906 163.793C87.0161 164.06 83.4664 164.111 79.5414 163.946C77.0122 163.839 74.941 163.697 73.3279 163.521C73.2485 163.512 73.2088 163.549 73.2088 163.63L73.2037 175.824C73.2037 175.915 73.2502 175.963 73.3434 175.966L75.5638 176.034C75.7346 176.039 75.8183 176.127 75.8148 176.297L75.8071 176.761C75.8036 176.923 75.7208 177.002 75.5586 176.999L73.2399 176.973C73.2268 176.973 73.2138 176.976 73.2017 176.981C73.1895 176.986 73.1786 176.993 73.1694 177.003C73.1603 177.012 73.1531 177.023 73.1483 177.035C73.1435 177.048 73.1412 177.061 73.1416 177.074L73.1778 177.967C73.1795 178.018 73.2054 178.045 73.2554 178.047C79.1662 178.267 84.0599 177.747 90.7392 177.105C90.8496 177.093 90.8979 177.032 90.8841 176.924L90.8738 176.844C90.8707 176.82 90.8588 176.798 90.8403 176.782C90.8219 176.766 90.798 176.756 90.7729 176.756L89.466 176.732C89.401 176.731 89.3391 176.704 89.2936 176.658C89.2481 176.611 89.2227 176.549 89.2227 176.484L89.2098 174.106C89.209 174.026 89.2394 173.949 89.2944 173.891C89.3495 173.833 89.4249 173.798 89.5048 173.795L90.0353 173.777C90.2458 173.768 90.3364 173.868 90.307 174.077L90.0922 175.586C90.0882 175.616 90.0916 175.646 90.102 175.674C90.1124 175.702 90.1296 175.727 90.1519 175.747C90.1743 175.767 90.2011 175.781 90.2299 175.787C90.2588 175.794 90.2889 175.793 90.3174 175.785L90.3873 175.767C90.4445 175.752 90.4958 175.72 90.5346 175.675C90.5734 175.63 90.5978 175.575 90.6046 175.516L90.7004 174.641C90.7066 174.586 90.728 174.533 90.7622 174.489C90.7964 174.445 90.8422 174.411 90.8945 174.39C92.5266 173.767 94.2329 173.421 96.0133 173.35C96.1078 173.345 96.2015 173.368 96.2825 173.417C96.6379 173.624 97.0123 173.77 97.4056 173.855C97.5143 173.879 97.5695 173.946 97.5712 174.056L97.5868 175.291C97.5885 175.329 97.6083 175.349 97.6463 175.35L97.7136 175.355C97.7239 175.357 97.73 175.35 97.7317 175.335L97.9154 173.767C97.9202 173.723 97.9119 173.678 97.8917 173.639C97.8715 173.599 97.8402 173.566 97.8016 173.544C97.6066 173.43 97.3892 173.368 97.1494 173.358C97.1257 173.356 97.1027 173.35 97.082 173.338C97.0613 173.327 97.0435 173.31 97.0301 173.291C97.0166 173.271 97.0077 173.249 97.0042 173.226C97.0006 173.202 97.0025 173.178 97.0097 173.156L97.0433 173.052ZM62.8832 175.534C62.9125 175.784 62.8021 175.895 62.5519 175.865L55.4507 175.073C55.4059 175.068 55.3809 175.088 55.3757 175.133C55.3239 175.535 55.3239 175.821 55.3757 175.992C55.3791 176.002 55.386 176.009 55.3964 176.01C60.774 176.74 66.1629 177.384 71.5629 177.943C71.7303 177.961 71.8114 177.886 71.8062 177.718L71.7829 177.074C71.7777 176.931 71.7035 176.851 71.5603 176.836L67.2075 176.404C67.0591 176.388 66.9858 176.306 66.9875 176.158L66.9979 175.645C67.0014 175.49 67.079 175.421 67.2308 175.438L71.5759 175.922C71.6966 175.936 71.757 175.883 71.757 175.762L71.7777 163.575C71.7777 163.453 71.7165 163.387 71.594 163.376C67.5845 163.083 63.6181 162.621 59.6949 161.989C58.5898 161.81 57.5107 161.541 56.3901 161.365C56.3515 161.36 56.3122 161.369 56.2804 161.391C56.2487 161.413 56.2268 161.447 56.2193 161.484C56.1072 162.045 55.9424 162.597 55.725 163.141C54.9573 165.063 54.1335 166.973 53.2536 168.873C53.2397 168.903 53.232 168.936 53.2312 168.969C53.2303 169.002 53.2363 169.035 53.2486 169.066C53.261 169.096 53.2795 169.124 53.3031 169.148C53.3266 169.171 53.3547 169.189 53.3856 169.202C55.4559 170.014 55.5957 171.908 55.606 173.917C55.606 174.027 55.6604 174.089 55.769 174.103L62.4122 174.916C62.5272 174.929 62.6343 174.982 62.716 175.064C62.7977 175.146 62.8493 175.253 62.8624 175.368L62.8832 175.534ZM218.239 171.285C218.241 171.357 218.27 171.425 218.322 171.475C218.373 171.526 218.442 171.554 218.514 171.554H219.106C219.144 171.554 219.182 171.546 219.217 171.531C219.252 171.516 219.283 171.493 219.309 171.465C219.335 171.438 219.355 171.404 219.367 171.368C219.379 171.332 219.384 171.294 219.381 171.256L219.231 169.396C219.226 169.335 219.202 169.279 219.161 169.234C219.121 169.189 219.067 169.158 219.008 169.147L218.534 169.057C218.494 169.049 218.453 169.05 218.413 169.061C218.374 169.071 218.337 169.09 218.306 169.116C218.275 169.142 218.25 169.175 218.233 169.212C218.216 169.25 218.208 169.29 218.208 169.331L218.239 171.285ZM199.203 173.984C199.22 174.315 199.066 174.513 198.74 174.577L195.171 175.27C195.066 175.291 194.957 175.28 194.858 175.238C194.759 175.197 194.675 175.127 194.617 175.037C194.403 174.706 194.313 174.351 194.345 173.971C194.354 173.85 194.298 173.795 194.177 173.805C191.527 174.02 188.598 174.307 185.989 174.064C184.735 173.947 183.858 173.351 183.36 172.276C183.248 172.034 183.19 172.046 183.186 172.312C183.096 179.571 182.708 186.828 183.065 194.084C183.129 195.362 183.453 197.164 184.343 198.1C184.407 198.168 184.484 198.204 184.574 198.209C185.262 198.257 185.951 198.245 186.641 198.17C196.271 197.117 207.401 195.497 217.9 194.069C220.385 193.73 222.786 193.367 225.105 192.979C225.85 192.855 226.491 192.636 227.028 192.322C227.752 191.9 228.06 190.619 228.208 189.866C228.713 187.29 229.063 184.721 229.256 182.159C229.592 177.704 229.721 173.434 229.642 169.346C229.641 169.331 229.637 169.316 229.629 169.304C229.62 169.291 229.609 169.281 229.595 169.274C229.582 169.267 229.566 169.265 229.551 169.266C229.536 169.267 229.522 169.273 229.51 169.282C228.78 169.815 227.988 170.159 227.095 170.332C225.099 170.721 223.135 170.965 221.203 171.065C220.944 171.079 220.839 171.212 220.887 171.466C220.989 171.994 220.898 172.426 220.615 172.762C220.562 172.826 220.494 172.867 220.413 172.884C219.609 173.057 218.768 173.174 217.89 173.236C216.917 173.306 216.782 172.429 216.824 171.694C216.825 171.676 216.822 171.657 216.815 171.641C216.808 171.624 216.797 171.609 216.784 171.596C216.771 171.584 216.755 171.575 216.738 171.569C216.72 171.564 216.702 171.562 216.684 171.564L199.335 173.474C199.23 173.486 199.18 173.545 199.185 173.65L199.203 173.984ZM195.87 171.546C195.81 171.554 195.756 171.584 195.717 171.629C195.678 171.674 195.657 171.732 195.657 171.792L195.676 173.283C195.676 173.318 195.684 173.353 195.699 173.385C195.714 173.417 195.736 173.445 195.763 173.468C195.79 173.491 195.821 173.508 195.855 173.517C195.89 173.527 195.925 173.529 195.96 173.523L197.536 173.27C197.6 173.259 197.657 173.225 197.695 173.173C197.733 173.121 197.75 173.056 197.741 172.993L197.541 171.556C197.532 171.492 197.498 171.434 197.446 171.394C197.394 171.355 197.329 171.338 197.265 171.347L195.87 171.546ZM96.0289 178.518C96.0506 178.517 96.071 178.507 96.0859 178.491C96.1008 178.475 96.1091 178.454 96.1091 178.433L96.0703 174.522C96.0704 174.51 96.0678 174.498 96.0628 174.486C96.0577 174.475 96.0502 174.465 96.0409 174.457C96.0315 174.449 96.0205 174.443 96.0086 174.439C95.9967 174.436 95.9842 174.435 95.9719 174.437L92.323 175.04C92.3031 175.043 92.2852 175.054 92.2724 175.07C92.2596 175.085 92.2528 175.105 92.2531 175.125L92.2065 178.728C92.2065 178.739 92.2089 178.751 92.2137 178.762C92.2185 178.773 92.2255 178.783 92.2342 178.791C92.243 178.799 92.2534 178.805 92.2646 178.809C92.2759 178.813 92.2879 178.814 92.2997 178.813L96.0289 178.518ZM87.0308 192.024C87.0239 191.831 87.1162 191.727 87.3077 191.714C94.8971 191.155 101.994 190.53 108.598 189.84C108.688 189.831 108.733 189.782 108.733 189.692L108.689 176.748C108.689 176.636 108.633 176.586 108.521 176.598L97.6333 177.798C97.5247 177.811 97.4712 177.872 97.4729 177.982C97.4807 178.707 97.4522 179.514 96.5309 179.602C94.923 179.756 93.315 179.911 91.7071 180.068C90.6486 180.172 90.8194 179.587 90.7961 178.831C90.7927 178.726 90.7392 178.679 90.6357 178.691C84.9216 179.276 79.2205 179.739 73.3667 179.657C73.2494 179.655 73.1899 179.714 73.1881 179.833L73.1157 193.856C73.1156 193.914 73.1378 193.969 73.1775 194.01C73.2171 194.051 73.2711 194.075 73.3279 194.076C75.531 194.138 77.8946 194.121 80.4187 194.025C84.254 193.876 89.3754 193.511 95.783 192.93C100.096 192.538 104.453 192.132 108.854 191.711C109.024 191.695 109.092 191.604 109.059 191.437L108.994 191.108C108.978 191.029 108.933 190.958 108.868 190.91C108.803 190.862 108.722 190.841 108.642 190.849C103.987 191.312 99.1697 191.758 94.1889 192.19C91.4802 192.423 89.2029 192.582 87.3568 192.668C87.155 192.677 87.0506 192.581 87.0437 192.381L87.0308 192.024ZM39.495 180.035C39.8034 180.105 40.1304 180.037 40.4041 179.844C40.6778 179.651 40.8757 179.35 40.9543 179.007C41.0329 178.664 40.9858 178.306 40.8233 178.014C40.6608 177.721 40.3962 177.517 40.0878 177.446C39.7794 177.376 39.4524 177.444 39.1787 177.637C38.905 177.83 38.7071 178.131 38.6285 178.474C38.5499 178.817 38.597 179.175 38.7595 179.467C38.922 179.76 39.1866 179.964 39.495 180.035ZM70.4605 188.541C70.6779 188.575 70.7857 188.702 70.784 188.921L70.7555 192.451C70.7555 192.48 70.7443 192.509 70.724 192.53C70.7038 192.551 70.6761 192.564 70.6468 192.565C69.1614 192.624 67.7484 192.592 66.4079 192.469C62.0809 192.073 57.8083 191.258 53.5745 190.396C53.4313 190.367 53.3312 190.419 53.2743 190.552L52.9664 191.276C52.9267 191.371 52.9577 191.428 53.0595 191.447C59.2213 192.513 65.2045 193.639 71.4646 194.035C71.6026 194.044 71.6725 193.979 71.6742 193.841L71.7544 179.607C71.7544 179.549 71.726 179.516 71.669 179.509L55.3136 177.553C55.2953 177.55 55.2767 177.551 55.259 177.557C55.2412 177.562 55.2247 177.57 55.2103 177.582C55.196 177.594 55.1843 177.609 55.1757 177.626C55.1672 177.642 55.1622 177.661 55.1609 177.679C54.9142 180.735 54.6416 183.701 54.3431 186.579C54.25 187.475 54.0559 188.367 53.7608 189.258C53.7546 189.277 53.7525 189.297 53.7548 189.317C53.757 189.337 53.7634 189.357 53.7737 189.374C53.784 189.391 53.7979 189.406 53.8144 189.418C53.8309 189.43 53.8497 189.438 53.8695 189.441C56.9819 190.087 60.0511 190.649 63.0772 191.129C65.2908 191.479 67.525 191.653 69.7799 191.651C69.8731 191.651 69.9214 191.605 69.9248 191.512L69.9973 188.725C70.0007 188.55 70.0887 188.478 70.2612 188.507L70.4605 188.541ZM46.5769 193.792C45.1872 193.66 44.7809 194.591 44.5454 195.854C44.5264 195.959 44.5704 196.011 44.6773 196.009C45.8333 195.985 46.8641 195.866 47.7699 195.652C47.8613 195.632 47.9044 195.574 47.8993 195.479C47.8553 194.785 47.3843 193.867 46.5769 193.792ZM226.81 194.449C226.81 194.419 226.803 194.39 226.79 194.364C226.777 194.338 226.758 194.315 226.734 194.297C226.711 194.279 226.684 194.267 226.655 194.261C226.626 194.256 226.596 194.257 226.567 194.265L225.568 194.545C225.526 194.556 225.49 194.582 225.464 194.617C225.439 194.653 225.426 194.695 225.429 194.739L225.568 197.479C225.57 197.505 225.576 197.529 225.587 197.552C225.598 197.575 225.613 197.595 225.632 197.612C225.65 197.629 225.672 197.642 225.696 197.65C225.72 197.658 225.745 197.662 225.77 197.661L226.619 197.611C226.667 197.608 226.713 197.586 226.746 197.551C226.779 197.515 226.798 197.468 226.798 197.42L226.81 194.449ZM210.579 196.628L209.578 196.685C209.567 196.685 209.557 196.688 209.548 196.692C209.538 196.696 209.53 196.703 209.523 196.71C209.516 196.718 209.51 196.727 209.507 196.737C209.503 196.747 209.502 196.757 209.503 196.768L209.508 196.827C209.514 196.927 209.565 197.019 209.651 197.085C209.737 197.15 209.85 197.183 209.966 197.177L210.251 197.161C210.308 197.158 210.364 197.145 210.416 197.123C210.468 197.101 210.514 197.07 210.553 197.033C210.591 196.996 210.621 196.952 210.64 196.905C210.659 196.859 210.668 196.809 210.665 196.76L210.662 196.7C210.661 196.69 210.659 196.68 210.654 196.671C210.65 196.662 210.643 196.654 210.636 196.647C210.628 196.64 210.619 196.635 210.609 196.632C210.6 196.629 210.589 196.627 210.579 196.628ZM167.644 198.38C167.644 198.358 167.635 198.337 167.62 198.321C167.605 198.305 167.585 198.296 167.563 198.295L166.174 198.191C166.161 198.19 166.148 198.193 166.136 198.198C166.124 198.203 166.114 198.211 166.105 198.22C166.097 198.23 166.091 198.241 166.087 198.254C166.084 198.266 166.083 198.279 166.086 198.292L166.456 200.336C166.459 200.357 166.471 200.376 166.488 200.389C166.504 200.402 166.525 200.408 166.546 200.406L167.566 200.334C167.588 200.333 167.608 200.323 167.623 200.307C167.638 200.291 167.646 200.27 167.646 200.248L167.644 198.38ZM182.863 199.806C182.855 199.753 182.83 199.704 182.792 199.666C182.754 199.629 182.704 199.605 182.651 199.599L181.823 199.503C181.787 199.499 181.751 199.503 181.717 199.515C181.683 199.526 181.652 199.545 181.626 199.57C181.601 199.595 181.581 199.626 181.568 199.659C181.556 199.693 181.551 199.729 181.553 199.764L181.675 201.299C181.68 201.362 181.708 201.42 181.755 201.462C181.802 201.504 181.863 201.526 181.926 201.524L182.829 201.493C182.863 201.492 182.897 201.484 182.928 201.469C182.958 201.454 182.985 201.433 183.007 201.407C183.029 201.381 183.046 201.35 183.055 201.317C183.064 201.285 183.067 201.25 183.062 201.216L182.863 199.806Z" fill="#F8F8CA"/>
<path d="M207.777 113.313L205.673 113.311C205.571 113.311 205.472 113.283 205.385 113.231C204.861 112.922 204.646 112.626 204.741 112.343C204.879 111.934 205.127 111.72 205.486 111.701C206.183 111.661 206.957 111.646 207.808 111.655C207.92 111.655 207.976 111.599 207.976 111.489L207.973 109.377C207.972 109.254 208.006 109.132 208.071 109.026C208.135 108.921 208.228 108.835 208.338 108.779C208.597 108.65 208.834 108.616 209.05 108.676C209.407 108.776 209.61 109.009 209.66 109.375C209.74 109.963 209.743 110.657 209.671 111.458C209.66 111.573 209.714 111.633 209.831 111.636C210.634 111.668 211.433 111.613 212.215 111.691C213.113 111.781 213.221 113.037 212.313 113.238C211.576 113.401 210.636 113.3 209.88 113.311C209.768 113.311 209.711 113.367 209.71 113.479L209.694 115.034C209.691 115.461 209.482 115.726 209.068 115.831C208.99 115.85 208.912 115.858 208.832 115.855C208.28 115.837 208.001 115.552 207.994 114.998L207.976 113.51C207.974 113.379 207.908 113.313 207.777 113.313Z" fill="#F8F8CA"/>
<path d="M152.002 139.796C155.944 139.665 159.094 138.231 159.04 136.593C158.986 134.954 155.747 133.732 151.806 133.863C147.864 133.994 144.714 135.428 144.768 137.066C144.822 138.705 148.061 139.927 152.002 139.796Z" fill="#F8F8CA"/>
<path d="M181.716 150.558C181.741 150.56 181.766 150.566 181.788 150.577C181.81 150.587 181.831 150.602 181.847 150.621C181.864 150.639 181.876 150.661 181.885 150.684C181.893 150.708 181.896 150.733 181.895 150.758L181.892 150.807C181.882 150.981 181.804 151.144 181.674 151.26C181.545 151.376 181.375 151.435 181.201 151.425L177.188 151.2C177.014 151.191 176.852 151.113 176.736 150.983C176.62 150.854 176.56 150.683 176.569 150.509L176.572 150.46C176.573 150.435 176.579 150.411 176.59 150.388C176.601 150.366 176.616 150.346 176.634 150.329C176.653 150.313 176.674 150.3 176.698 150.292C176.721 150.284 176.746 150.28 176.771 150.281L181.716 150.558Z" fill="#F8F8CA"/>
<path d="M105.82 174.65C106.321 174.504 106.615 174.001 106.477 173.526C106.34 173.051 105.822 172.784 105.321 172.93C104.82 173.075 104.525 173.578 104.663 174.053C104.801 174.528 105.319 174.795 105.82 174.65Z" fill="#F8F8CA"/>
<path d="M64.9262 176.206C65.2337 176.272 65.53 176.104 65.588 175.831C65.6459 175.558 65.4436 175.284 65.136 175.219C64.8284 175.154 64.5321 175.322 64.4742 175.594C64.4162 175.867 64.6186 176.141 64.9262 176.206Z" fill="#F8F8CA"/>
<path d="M81.9585 177.108C82.4616 177.108 82.8694 176.7 82.8694 176.197C82.8694 175.693 82.4616 175.286 81.9585 175.286C81.4554 175.286 81.0475 175.693 81.0475 176.197C81.0475 176.7 81.4554 177.108 81.9585 177.108Z" fill="#F8F8CA"/>
<path d="M94.6365 177.506L93.4021 177.545C93.3666 177.546 93.3312 177.54 93.2983 177.526C93.2653 177.513 93.2356 177.493 93.2109 177.467C93.1863 177.442 93.1673 177.411 93.1552 177.378C93.1431 177.344 93.1382 177.309 93.1407 177.273L93.1951 176.427C93.1989 176.368 93.2232 176.312 93.2638 176.269C93.3045 176.226 93.3589 176.198 93.4176 176.191L94.5667 176.057C94.6016 176.052 94.6371 176.055 94.6708 176.066C94.7046 176.076 94.7358 176.093 94.7626 176.116C94.7894 176.139 94.8111 176.167 94.8264 176.198C94.8417 176.23 94.8502 176.265 94.8513 176.3L94.8824 177.245C94.8834 177.278 94.8779 177.311 94.8661 177.342C94.8543 177.373 94.8365 177.402 94.8136 177.426C94.7908 177.45 94.7634 177.47 94.733 177.484C94.7026 177.497 94.6698 177.505 94.6365 177.506Z" fill="#F8F8CA"/>
<path d="M39.3414 178.634C39.2755 178.98 39.4224 179.298 39.6695 179.345C39.9166 179.392 40.1703 179.15 40.2362 178.805C40.3021 178.46 40.1552 178.141 39.9081 178.094C39.661 178.047 39.4073 178.289 39.3414 178.634Z" fill="#F8F8CA"/>
<path d="M74.5932 184.197L74.0808 184.194C73.965 184.194 73.8707 184.287 73.8701 184.403L73.8622 185.899C73.8616 186.014 73.955 186.109 74.0707 186.109L74.5831 186.112C74.6989 186.113 74.7932 186.019 74.7939 185.904L74.8017 184.408C74.8023 184.292 74.7089 184.198 74.5932 184.197Z" fill="#F8F8CA"/>
<path d="M70.4028 184.917L70.1752 184.924C69.9781 184.93 69.823 185.095 69.8288 185.292L69.8711 186.714C69.8769 186.912 70.0415 187.067 70.2386 187.061L70.4663 187.054C70.6634 187.048 70.8185 186.884 70.8126 186.686L70.7704 185.264C70.7646 185.067 70.6 184.911 70.4028 184.917Z" fill="#F8F8CA"/>
<path d="M74.9298 191.822C76.957 191.958 78.9608 192.019 80.9414 192.003C81.1157 192.003 81.208 192.09 81.2184 192.262L81.2442 192.661C81.2546 192.83 81.1744 192.917 81.0036 192.922C78.6486 192.982 76.36 192.92 74.1379 192.736C74.0568 192.729 73.9811 192.692 73.9255 192.633C73.87 192.573 73.8387 192.494 73.8377 192.412L73.8092 188.352C73.8075 188.096 73.9343 187.977 74.1896 187.992L74.464 188.008C74.5408 188.013 74.613 188.046 74.667 188.101C74.7209 188.155 74.7527 188.228 74.7564 188.305C74.8116 189.534 74.8202 190.652 74.7823 191.659C74.7788 191.763 74.828 191.817 74.9298 191.822Z" fill="#F8F8CA"/>
<path d="M85.4012 191.835L84.3516 191.883C84.1345 191.893 83.9666 192.077 83.9765 192.294L83.9847 192.475C83.9945 192.692 84.1785 192.86 84.3955 192.85L85.4451 192.802C85.6621 192.792 85.83 192.608 85.8202 192.391L85.812 192.21C85.8021 191.993 85.6182 191.825 85.4012 191.835Z" fill="#F8F8CA"/>
<path d="M240.051 193.36L233.659 193.349C233.397 193.348 233.185 193.56 233.185 193.821L233.184 193.966C233.184 194.228 233.396 194.44 233.657 194.441L240.049 194.452C240.311 194.452 240.523 194.241 240.524 193.979L240.524 193.834C240.524 193.573 240.313 193.36 240.051 193.36Z" fill="#F8F8CA"/>
<path d="M102.382 199.042C102.258 199.165 102.075 199.225 101.833 199.224C96.3506 199.203 90.8436 199.219 85.3124 199.273L79.3421 199.218C79.2391 199.217 79.1406 199.176 79.0672 199.104C78.9939 199.032 78.9514 198.935 78.9487 198.833L78.9436 198.672C78.9332 198.324 79.1014 198.15 79.4482 198.15C86.6667 198.131 94.1069 198.14 101.769 198.178C101.952 198.18 102.105 198.202 102.229 198.245C102.269 198.259 102.305 198.282 102.334 198.311C102.364 198.341 102.386 198.377 102.4 198.416C102.457 198.585 102.451 198.794 102.382 199.042Z" fill="#F8F8CA"/>
<path d="M218.412 198.425L213.392 198.407C213.231 198.407 213.101 198.536 213.101 198.696L213.099 199.178C213.098 199.338 213.228 199.468 213.388 199.468L218.408 199.486C218.568 199.486 218.699 199.357 218.699 199.197L218.701 198.716C218.701 198.556 218.572 198.425 218.412 198.425Z" fill="#F8F8CA"/>
<path d="M59.0988 198.439L50.124 198.455C49.8767 198.455 49.6766 198.656 49.6771 198.904L49.6773 199.033C49.6777 199.28 49.8785 199.48 50.1258 199.48L59.1006 199.464C59.3478 199.464 59.5479 199.263 59.5475 199.016L59.5473 198.886C59.5468 198.639 59.346 198.439 59.0988 198.439Z" fill="#F8F8CA"/>
<path d="M124.32 199.537L119.918 199.498C119.828 199.496 119.769 199.453 119.742 199.369C119.664 199.118 119.674 198.847 119.77 198.553C119.844 198.495 119.947 198.464 120.078 198.46C121.298 198.436 122.522 198.453 123.75 198.512C124.056 198.526 124.257 198.607 124.353 198.755C124.479 198.95 124.468 199.211 124.32 199.537Z" fill="#F8F8CA"/>
<path d="M220.754 199.956L219.259 200.003C219.055 200.009 218.894 200.18 218.901 200.385L218.909 200.664C218.916 200.868 219.087 201.029 219.291 201.022L220.786 200.975C220.99 200.969 221.151 200.798 221.144 200.594L221.135 200.314C221.129 200.11 220.958 199.95 220.754 199.956Z" fill="#F8F8CA"/>
<path d="M125.143 201.265C125.067 201.376 124.91 201.431 124.672 201.431C122.475 201.424 120.828 201.406 119.729 201.377C119.641 201.375 119.573 201.335 119.527 201.258C119.437 201.104 119.414 200.926 119.457 200.722C119.474 200.46 119.595 200.33 119.819 200.334C121.415 200.353 123.106 200.373 124.892 200.396C124.951 200.397 125.009 200.416 125.057 200.452C125.105 200.488 125.14 200.538 125.158 200.595C125.213 200.769 125.208 200.993 125.143 201.265Z" fill="#F8F8CA"/>
<path d="M158.581 200.378H141.868C141.652 200.378 141.477 200.553 141.477 200.769V201.033C141.477 201.248 141.652 201.423 141.868 201.423H158.581C158.797 201.423 158.971 201.248 158.971 201.033V200.769C158.971 200.553 158.797 200.378 158.581 200.378Z" fill="#F8F8CA"/>
<path d="M215.871 200.401H205.422C205.24 200.401 205.093 200.548 205.093 200.73V201.108C205.093 201.289 205.24 201.436 205.422 201.436H215.871C216.053 201.436 216.2 201.289 216.2 201.108V200.73C216.2 200.548 216.053 200.401 215.871 200.401Z" fill="#F8F8CA"/>
<path d="M95.6359 202.086C96.2048 202.091 96.668 201.855 96.6706 201.559C96.6731 201.263 96.2141 201.019 95.6453 201.014C95.0765 201.009 94.6133 201.245 94.6107 201.541C94.6081 201.837 95.0671 202.081 95.6359 202.086Z" fill="#F8F8CA"/>
<path d="M84.8397 202.275L78.313 202.264C78.0343 202.263 77.808 202.489 77.8075 202.768L77.8074 202.825C77.8069 203.103 78.0325 203.33 78.3112 203.33L84.8378 203.341C85.1165 203.342 85.3429 203.116 85.3434 202.838L85.3435 202.781C85.3439 202.502 85.1184 202.276 84.8397 202.275Z" fill="#F8F8CA"/>
<path d="M161.637 204.511L156.055 204.474C156.016 204.474 155.977 204.464 155.944 204.443C155.91 204.423 155.882 204.393 155.863 204.358C155.708 204.059 155.76 203.806 156.019 203.597C157.849 203.521 159.684 203.503 161.523 203.543C161.653 203.546 161.749 203.58 161.813 203.644C161.896 203.727 161.938 203.831 161.94 203.957C161.94 204.121 161.929 204.227 161.906 204.275C161.867 204.358 161.777 204.436 161.637 204.511Z" fill="#F8F8CA"/>
<path d="M252.011 204.234H249.346C249.11 204.234 248.919 204.425 248.919 204.661V204.847C248.919 205.083 249.11 205.274 249.346 205.274H252.011C252.247 205.274 252.438 205.083 252.438 204.847V204.661C252.438 204.425 252.247 204.234 252.011 204.234Z" fill="#F8F8CA"/>
<path d="M89.3107 207.989H69.6582C69.3609 207.989 69.1199 208.23 69.1199 208.527V208.543C69.1199 208.84 69.3609 209.081 69.6582 209.081H89.3107C89.6079 209.081 89.8489 208.84 89.8489 208.543V208.527C89.8489 208.23 89.6079 207.989 89.3107 207.989Z" fill="#F8F8CA"/>
<path d="M135.927 208.076L127.9 208.062C127.647 208.062 127.441 208.266 127.441 208.519L127.441 208.674C127.44 208.927 127.645 209.133 127.898 209.133L135.925 209.147C136.178 209.148 136.384 208.943 136.384 208.69L136.385 208.535C136.385 208.282 136.18 208.076 135.927 208.076Z" fill="#F8F8CA"/>
<path d="M167.118 208.276H156.497C156.217 208.276 155.99 208.503 155.99 208.783V208.851C155.99 209.131 156.217 209.358 156.497 209.358H167.118C167.398 209.358 167.625 209.131 167.625 208.851V208.783C167.625 208.503 167.398 208.276 167.118 208.276Z" fill="#F8F8CA"/>
<path d="M18.4843 208.542L9.32323 208.558C9.03452 208.559 8.80088 208.793 8.80139 209.082L8.80142 209.097C8.80192 209.386 9.03637 209.62 9.32508 209.619L18.4862 209.603C18.7749 209.603 19.0085 209.368 19.008 209.08L19.008 209.064C19.0075 208.775 18.7731 208.542 18.4843 208.542Z" fill="#F8F8CA"/>
<path d="M27.715 209.629C28.1636 209.616 28.5197 209.351 28.5104 209.039C28.5011 208.726 28.13 208.483 27.6814 208.496C27.2328 208.509 26.8767 208.774 26.886 209.087C26.8952 209.4 27.2664 209.642 27.715 209.629Z" fill="#F8F8CA"/>
</g>
<defs>
<clipPath id="clip0_3_277">
<rect width="265" height="265" fill="white"/>
</clipPath>
</defs>
</svg>
