<svg width="40" height="40" viewBox="0 0 40 40" fill="none" xmlns="http://www.w3.org/2000/svg">
<path d="M34.0833 3H4.91667C4.14312 3 3.40125 3.30729 2.85427 3.85427C2.30729 4.40125 2 5.14312 2 5.91667V35.0833C2 35.8569 2.30729 36.5987 2.85427 37.1457C3.40125 37.6927 4.14312 38 4.91667 38H34.0833C34.8569 38 35.5987 37.6927 36.1457 37.1457C36.6927 36.5987 37 35.8569 37 35.0833V5.91667C37 5.14312 36.6927 4.40125 36.1457 3.85427C35.5987 3.30729 34.8569 3 34.0833 3ZM29.7083 21.9583H20.9583V30.7083C20.9583 31.0951 20.8047 31.466 20.5312 31.7395C20.2577 32.013 19.8868 32.1667 19.5 32.1667C19.1132 32.1667 18.7423 32.013 18.4688 31.7395C18.1953 31.466 18.0417 31.0951 18.0417 30.7083V21.9583H9.29167C8.90489 21.9583 8.53396 21.8047 8.26047 21.5312C7.98698 21.2577 7.83333 20.8868 7.83333 20.5C7.83333 20.1132 7.98698 19.7423 8.26047 19.4688C8.53396 19.1953 8.90489 19.0417 9.29167 19.0417H18.0417V10.2917C18.0417 9.90489 18.1953 9.53396 18.4688 9.26047C18.7423 8.98698 19.1132 8.83333 19.5 8.83333C19.8868 8.83333 20.2577 8.98698 20.5312 9.26047C20.8047 9.53396 20.9583 9.90489 20.9583 10.2917V19.0417H29.7083C30.0951 19.0417 30.466 19.1953 30.7395 19.4688C31.013 19.7423 31.1667 20.1132 31.1667 20.5C31.1667 20.8868 31.013 21.2577 30.7395 21.5312C30.466 21.8047 30.0951 21.9583 29.7083 21.9583Z" fill="url(#paint0_linear_2_22)"/>
<defs>
<linearGradient id="paint0_linear_2_22" x1="2" y1="20.5" x2="37" y2="20.5" gradientUnits="userSpaceOnUse">
<stop offset="0.040069" stop-color="#FFB5D8"/>
<stop offset="0.150069" stop-color="#FF63FF"/>
<stop offset="0.265069" stop-color="#3C3CFF"/>
<stop offset="0.395069" stop-color="#49FFFF"/>
<stop offset="0.517725" stop-color="#3FDC9A"/>
<stop offset="0.637725" stop-color="#F8F8CA"/>
<stop offset="0.762725" stop-color="#FFFF55"/>
<stop offset="0.887725" stop-color="#FEE157"/>
<stop offset="1" stop-color="#FF3636"/>
</linearGradient>
</defs>
</svg>
