<svg width="26" height="26" viewBox="0 0 26 26" fill="none" xmlns="http://www.w3.org/2000/svg">
<g clip-path="url(#clip0_15_105)">
<rect x="-102.5" y="-15.5" width="232" height="57" rx="28.5" fill="black" stroke="#F8F8CA" stroke-width="3"/>
<path d="M22.7865 9.76569H16.276V3.25527C16.276 2.39193 15.9331 1.56396 15.3226 0.953489C14.7121 0.343019 13.8842 6.10352e-05 13.0208 6.10352e-05C12.1575 6.10352e-05 11.3295 0.343019 10.7191 0.953489C10.1086 1.56396 9.76562 2.39193 9.76562 3.25527L9.88118 9.76569H3.25521C2.39187 9.76569 1.5639 10.1086 0.953428 10.7191C0.342958 11.3296 0 12.1576 0 13.0209C0 13.8842 0.342958 14.7122 0.953428 15.3227C1.5639 15.9331 2.39187 16.2761 3.25521 16.2761L9.88118 16.1605L9.76562 22.7865C9.76562 23.6499 10.1086 24.4778 10.7191 25.0883C11.3295 25.6988 12.1575 26.0417 13.0208 26.0417C13.8842 26.0417 14.7121 25.6988 15.3226 25.0883C15.9331 24.4778 16.276 23.6499 16.276 22.7865V16.1605L22.7865 16.2761C23.6498 16.2761 24.4778 15.9331 25.0882 15.3227C25.6987 14.7122 26.0417 13.8842 26.0417 13.0209C26.0417 12.1576 25.6987 11.3296 25.0882 10.7191C24.4778 10.1086 23.6498 9.76569 22.7865 9.76569Z" fill="#F8F8CA"/>
</g>
<defs>
<clipPath id="clip0_15_105">
<rect width="26" height="26" fill="white"/>
</clipPath>
</defs>
</svg>
